<svg xmlns="http://www.w3.org/2000/svg" xmlns:xlink="http://www.w3.org/1999/xlink" width="189" height="105" viewBox="0 0 189 105">
    <defs>
        <path id="prefix__a" d="M0 0.182L188.304 0.182 188.304 104.3 0 104.3z"/>
        <path id="prefix__c" d="M0.165 0.18L60.904 0.18 60.904 45.683 0.165 45.683z"/>
    </defs>
    <g fill="none" fill-rule="evenodd">
        <g transform="translate(0 .52)">
            <mask id="prefix__b" fill="#fff">
                <use xlink:href="#prefix__a"/>
            </mask>
            <path fill="#6C6CFF" d="M158.728 43.796c-3.902-.19-6.233-2.398-6.692-4.365-.483-2.082.672-3.45 1.52-3.976 1.963-1.21 3.839-.332 4.665.777 1.347 1.803 1.466 5.002.507 7.564m-6.902 9.593c-2.639 2.037-5.544 3.283-8.165 3.276-.532 0-2.45 0-3.542-1.487-1.152-1.565-1.414-3.9-.718-6.703.312-1.267.963-3.017 1.75-4.371 1.17-2.01 2.468-3.36 2.468-3.36s.042.735.346 1.953c.68 2.737 2.629 7.325 9.632 9.138-.535.522-1.176 1.096-1.77 1.554m-33.982-9.593c-3.903-.19-6.234-2.398-6.692-4.365-.483-2.082.672-3.45 1.519-3.976 1.963-1.21 3.84-.332 4.669.777 1.344 1.803 1.466 5.002.504 7.564m-7.021 9.6c-2.636 2.04-5.54 3.287-8.162 3.276-.529 0-2.447 0-3.539-1.487-1.151-1.565-1.41-3.868-.717-6.703.36-1.477.966-3.006 1.75-4.371 1.144-1.992 2.467-3.36 2.467-3.36s.046.731.343 1.953c.68 2.779 2.583 7.171 9.576 9.187-.532.522-1.123 1.047-1.718 1.505M46.798 43.012c-2.166 9.306-8.547 13.167-12.047 13.657-4.308.602-6.25-3.994-4.21-9.954 2.04-5.957 7.196-11.221 11.515-11.757 3.843-.48 5.89 3.105 4.742 8.054M30.737 88.515c-.497 1.246-1.194 2.566-2.055 3.815-2.289 3.14-5.005 3.55-6.496 2.485-1.557-1.113-.994-4.308 2.335-7.742 2.849-2.94 7.402-5.999 9.495-7.343-1.34 3.679-2.593 7.067-3.28 8.785m51.937-75.012c2.254-3.083 4.442-4.816 6.1-4.43 4.148.962 1.114 17.608-17.412 33.477 1.946-11.837 7.938-24.427 11.312-29.047m101.147-1.379c-4.837-6.695-12.905-11-22.13-11.802-6.518-.567-13.115.588-19.209 3.364-5.642 2.565-10.398 6.597-13.832 11.378-.71.99-1.14 2.191-1.078 3.41.137 2.53 2.272 4.16 4.77 3.64.984-.207 1.845-.641 2.888-1.72.809-.836 5.163-6.082 10.934-8.812 4.414-2.09 9.412-2.996 14.756-2.594 2.22.165 4.585.812 4.589.812 4.68 1.281 8.624 3.857 11.172 7.385 2.635 3.654 3.199 7.868 2.114 12.173-.5 1.988-1.243 3.717-2.076 5.236-2.254 4.123-5.155 6.412-6.95 7.62-.96.644-1.565.952-1.565.952.003-.15.241-1.502.112-3.805-.08-1.379-.33-2.908-.879-4.553-.626-1.887-2.093-4.851-5.17-6.752-1.865-1.151-4.112-1.851-6.674-1.988-4.021-.213-8.35.732-12.015 3.147-7.777 5.13-9.713 10.496-16.422 14.031.003-.178.458-3.787-.452-7.385-.707-2.779-2.12-5.435-4.795-7.455-1.886-1.428-4.43-2.313-7.308-2.338-7.612-.07-14.031 3.374-20.723 12.593-1.575 2.139-5.271 7.942-9.471 12.275-3.119 3.213-6.741 6.11-9.394 6.11-3.57.004-3.941-3.538-3.941-3.538s2.271-1.7 5.215-4.137c17.626-14.574 24.188-31.66 22.498-40.9-.84-4.565-3.84-7.9-8.66-8.215C86.79.039 78.418.662 70.977 14.424c-3.885 7.178-7.224 18.168-8.312 24.188-1.089 6.024-1.215 10.812-1.215 10.812L52.44 55.79s1.383-3.44 2.46-6.559c2.09-6.03 4.41-14.658-1.36-20.016-2.983-2.769-8.408-4.029-14.225-2.394-2.964.833-6.006 2.418-8.774 4.9-8.575 7.682-13.829 22.76-18.89 24.181-3.867 1.085-1.914-6.664-1.914-6.664.777-3.692 3.552-11.364 5.733-16.33.633-1.44.833-2.563.427-3.823-.83-2.562-3.707-3.66-6.136-2.44-1.12.56-1.746 1.425-2.569 2.86C5.876 31.815 2.415 40.67 1.45 44.84c-.515 2.233-6.02 20.846 8.487 20.835 4.694-.003 8.81-3.409 10.91-5.53.948-.955 1.494-1.641 1.494-1.641s4.575 9.674 16.975 6.485c-5.32 3.76-13.275 9.363-16.278 11.617-3.927 2.943-6.836 6.167-8.593 9.436-1.715 3.185-2.341 6.412-1.767 9.47.77 4.078 3.622 7.18 7.626 8.292 1.2.333 2.398.497 3.584.497 7.287-.003 13.304-6.146 16.786-16.37.287-.77 2.804-7.829 6.276-17.247L63.206 59.24c1.047 2.324 3.994 6.437 11.008 6.437 5.908 0 10.454-2.503 15.466-7.473 1.1 2.24 2.986 4.403 6.041 5.954 3.826 1.942 9.366 2.324 15.813-.665 4.89-2.268 9.545-6.45 12.432-11.27 2.23-.385 4.144-.935 5.467-1.369-.038 1.008.004 1.614.004 1.614.367 7.346 5.285 12.764 12.995 13.177 3.357.179 6.829-.616 10.101-2.152 3.304-1.547 6.108-3.745 8.138-5.793 2.436-2.457 3.804-4.683 4.238-5.39 5.131-.815 10.14-3.108 13.91-6.608 4.546-3.969 7.528-9.219 8.78-14.266 1.677-6.751.337-13.611-3.78-19.313" mask="url(#prefix__b)"/>
        </g>
        <path fill="#6C6CFF" d="M17.32 22.602c2.817-.588 4.977-3.377 4.826-6.23-.154-2.852-2.558-4.69-5.376-4.102-2.817.588-4.977 3.378-4.826 6.23.154 2.853 2.558 4.69 5.376 4.102"/>
        <path fill="#FF6652" d="M90.124.775c-3.335-.217-11.707.406-19.148 14.168-3.885 7.179-7.224 18.169-8.313 24.189-1.088 6.023-1.214 10.811-1.214 10.811-.074 4.07.521 7.07 1.757 9.818.003.003.003.003.003.007 1.05 2.327 3.997 6.433 11.004 6.433 5.905 0 10.451-2.503 15.467-7.47l.003-.003c-15.571 7.704-18.354-2.66-18.61-4.7-.507-4.046.288-10.962.288-10.962 1.904-11.564 7.668-23.846 11.077-28.71v-.004C91.311.582 97.765 5.465 98.78 8.972 97.936 4.42 94.937 1.09 90.124.775"/>
        <g transform="translate(127.4 .52)">
            <mask id="prefix__d" fill="#fff">
                <use xlink:href="#prefix__c"/>
            </mask>
            <path fill="#FF6652" d="M57.505 30.777c-.004 5.631-2.125 10.881-6.062 14.906 4.532-3.965 7.504-9.208 8.757-14.245 1.676-6.755.336-13.611-3.78-19.313-4.837-6.699-12.905-11-22.13-11.805C27.771-.247 21.174.91 15.08 3.683 9.44 6.253 4.683 10.284 1.25 15.065c-.71.99-1.14 2.188-1.078 3.41.137 2.53 2.272 4.157 4.77 3.636.984-.203 1.845-.637 2.888-1.715.809-.84 5.163-6.083 10.934-8.813 4.414-2.093 9.412-2.996 14.756-2.597 2.142.16 4.417.77 4.578.812 11 2.492 19.411 10.447 19.408 20.979" mask="url(#prefix__d)"/>
        </g>
        <path fill="#FF6652" d="M158.728 44.317c-3.902-.19-6.233-2.398-6.692-4.365-.483-2.082.672-3.45 1.52-3.976 1.963-1.21 3.839-.332 4.665.777 1.347 1.803 1.466 5.002.507 7.564m9.587-4.435c-.08-1.379-.33-2.908-.879-4.557-.626-1.883-2.093-4.847-5.17-6.748l-.094-.052c-3.244-1.855-8.802-1.883-12.694.71-3.703 2.471-6.045 6.332-5.86 12.026 0 .007 0 .01.004.018v.01c.056.585 1.442 6.045 10.854 6.045 2.534 0 5.106-.29 8.07-1.211 3.27-1.015 5.657-2.436 5.657-2.436.003-.15.241-1.502.112-3.805M160.758 53.166c-2.747 0-5.134-.28-7.164-.808-.532.521-1.172 1.095-1.767 1.554-2.64 2.037-5.544 3.283-8.166 3.276-.532-.004-2.45 0-3.542-1.488-1.151-1.564-1.414-3.899-.721-6.702.27-1.082.784-2.517 1.417-3.756-4.43 8.25-2.859 13.811.193 16.898 3.601 3.647 9.46 2.839 11.637 1.817.424-.2.84-.41 1.254-.63 2.712-1.474 5.025-3.346 6.772-5.107 2.436-2.453 3.805-4.683 4.239-5.386-1.38.217-2.776.332-4.151.332M51.414 56.064c-2.254 2.961-5.012 5.551-7.074 6.983-1.736 1.197-3.426 1.988-5.026 2.46 0 0-6.611 18.603-8.578 23.53-1.97 4.929-7.07 11.075-13.094 9.02-6.044-2.058-3.577-10.755-3.199-11.494-1.715 3.185-2.341 6.409-1.764 9.471.767 4.078 3.62 7.175 7.623 8.292 1.204.332 2.398.493 3.584.493 7.287 0 13.307-6.142 16.786-16.366.287-.773 2.804-7.83 6.276-17.251l5.491-14.89s1.323-3.296 2.394-6.362c-.85 2.32-1.932 4.158-3.419 6.114M117.846 44.317c-3.903-.19-6.234-2.398-6.692-4.365-.483-2.082.672-3.45 1.519-3.976 1.963-1.21 3.84-.332 4.665.777 1.348 1.803 1.467 5.002.508 7.564m8.855-7.935c-.704-2.779-2.118-5.435-4.792-7.455-.122-.094-.248-.185-.374-.273-3.252-1.848-9.16-1.932-13.048.662-3.707 2.47-6.052 6.258-5.866 11.956l.01.094c.053.585 1.439 6.048 10.85 6.048 2.534 0 5.107-.29 8.075-1.21 3.234-1.009 5.55-2.405 5.596-2.437.007-.182.459-3.79-.451-7.385M119.704 53.222c-2.748 0-5.131-.28-7.161-.808-.533.521-1.124 1.043-1.719 1.505-2.639 2.037-5.54 3.283-8.162 3.276-.529-.004-2.447 0-3.538-1.488-1.152-1.564-1.411-3.867-.718-6.702.297-1.215.756-2.457 1.344-3.623l.042-.084c-4.427 8.25-2.888 13.811.161 16.898 3.605 3.647 9.46 2.814 11.641 1.792 0 0 .004-.003.007-.003 4.862-2.272 9.492-6.444 12.365-11.242-1.378.22-2.887.48-4.262.48M39.607 27.261c-.098.025-.193.053-.29.077-2.969.837-6.01 2.422-8.775 4.9-8.579 7.683-13.836 22.736-18.893 24.185-3.031.868-2.471-3.787-2.1-5.785-.75 3.664-1.068 8.715 2.145 10.962 2.282 1.592 6.283 1.403 8.964-.746.063-.06.13-.13.192-.192.945-.952 1.488-1.635 1.488-1.635l.024.046c.97 1.582 9.408 6.356 19.614-6.111-2.576 2.695-5.295 3.955-7.224 4.224-4.308.602-6.254-3.99-4.21-9.95 2.044-5.957 7.196-11.221 11.511-11.757 3.843-.48 5.894 3.105 4.743 8.054 0 .003 0 .007-.004.01h.004c4.182-14.906-3.679-16.88-7.19-16.282"/>
    </g>
</svg>
